<?xml version="1.0" encoding="UTF-8" standalone="no"?>
<!DOCTYPE svg PUBLIC "-//W3C//DTD SVG 1.1//EN" "http://www.w3.org/Graphics/SVG/1.1/DTD/svg11.dtd">
<svg width="100%" height="100%" viewBox="0 0 562 557" version="1.1" xmlns="http://www.w3.org/2000/svg" xmlns:xlink="http://www.w3.org/1999/xlink" xml:space="preserve" xmlns:serif="http://www.serif.com/" style="fill-rule:evenodd;clip-rule:evenodd;stroke-linejoin:round;stroke-miterlimit:2;">
    <g id="Artboard1" transform="matrix(1.12377,0,0,1.11248,0,0)">
        <rect x="0" y="0" width="500" height="500" style="fill:none;"/>
        <clipPath id="_clip1">
            <rect x="0" y="0" width="500" height="500"/>
        </clipPath>
        <g clip-path="url(#_clip1)">
            <g id="SVG.svg" transform="matrix(2.61437,-2.07072,2.04992,2.64091,358.514,390.767)">
                <g transform="matrix(1,0,0,1,-72.3925,-101.649)">
                    <clipPath id="_clip2">
                        <rect x="0" y="0" width="144.785" height="203.298"/>
                    </clipPath>
                    <g clip-path="url(#_clip2)">
                        <g id="layer1" transform="matrix(1,0,0,1,-19.2845,-362.739)">
                            <path id="path355" d="M36.403,362.739C34.996,369.667 29.357,376.567 26.325,383.113C21.04,394.523 18.755,406.073 19.387,418.304C19.705,424.456 22.465,430.348 25.826,435.714C27.164,437.851 31.018,440.742 31.183,443.123C31.451,446.997 27.159,451.932 26.024,455.717C23.091,465.494 22.584,476.401 26.247,486.093C29.725,495.296 35.518,503.542 43.408,510.541C49.132,515.619 56.088,519.776 61.591,524.997C67.644,530.739 72.238,538.667 75.704,545.732C78.562,551.557 81.604,567.012 91.431,565.988C97.461,565.36 98.847,561.344 100.777,557.215C103.999,550.322 106.871,543.215 111.439,536.841C114.498,532.572 119.573,528.668 122.003,524.247C118.63,524.247 115.288,527.124 112.395,526.563C107.657,525.646 107.475,520.33 111.958,518.971C114.448,518.216 115.733,520.006 117.76,520.691C119.695,521.345 123.925,521.222 125.933,520.795C129.269,520.086 131.982,516.381 134.668,514.616L134.668,514.245C129.951,513.063 123.858,513.875 118.946,513.875C115.546,513.875 111.333,513.304 108.027,513.992C105.625,514.492 104.24,516.547 101.477,515.935C96.742,514.888 97.199,509.063 101.913,508.314C104.617,507.885 105.983,510.327 108.481,510.519C115.343,511.047 122.535,510.542 129.427,510.542C132.203,510.542 136.375,511.198 138.961,510.267C141.828,509.235 144.43,505.304 146.023,503.133C142.407,502.227 137.99,502.763 134.231,502.763L110.648,502.763C107.181,502.763 100.54,503.835 97.591,502.118C94.398,500.258 95.362,495.949 95.362,493.132L95.362,467.943C95.362,465.409 94.14,459.92 97.202,458.378C100.851,456.54 109.5,457.941 113.705,457.941L156.505,457.941C156.472,454.585 155.353,451.111 154.096,447.939C153.476,446.375 151.973,444.447 152.172,442.753C152.463,440.264 155.761,437.52 157.155,435.345C159.785,431.242 161.681,426.574 162.83,422.009C167.806,402.227 156.941,380.338 145.586,363.481L144.713,363.481C142.238,367.918 138.372,371.82 135.486,376.076C128.388,386.54 122.095,397.316 118.509,409.044C113.445,408.022 107.559,408.204 102.35,407.9C89.904,407.173 76.101,406.741 63.917,409.415C61.794,397.176 53.448,385.746 46.098,375.335C43.285,371.351 40.493,365.831 36.403,362.74M144.276,426.084L136.316,426.678L134.966,430.676L121.129,430.9C121.129,432.729 120.668,435.083 121.391,436.826C122.208,438.798 124.383,440.062 123.358,442.381C121.798,445.911 115.469,445.701 114.333,442.012C113.582,439.578 116.006,438.485 116.625,436.423C117.425,433.756 116.762,430.315 116.762,427.566L130.219,427.342L131.623,422.973L140.346,422.38C140.346,417.141 141.242,411.257 140.281,406.086C139.878,403.918 137.49,402.989 137.775,400.524C138.148,397.293 142.702,395.853 145.487,398.077C149.148,401.002 144.87,403.308 144.341,406.095C143.142,412.418 144.276,419.674 144.276,426.084M143.409,462.259C137.704,463.758 140.528,471.476 146.458,470.067C152.602,468.607 149.483,460.663 143.409,462.259M118.946,464.401C103.989,466.399 97.794,482.302 107.014,492.006C111.831,497.077 119.422,498.739 126.807,497.836C140.203,496.198 146.523,482.317 140.33,472.758C136.099,466.229 127.389,463.273 118.946,464.401M60.86,470.647C70.662,469.432 69.605,480.582 69.595,486.094C69.591,487.791 69.761,492.445 66.95,492.753C64.5,493.022 61.495,489.679 60.118,488.316C55.056,483.308 48.218,472.214 60.86,470.647M121.566,471.755C135.735,470.317 137.974,489.22 123.75,490.474C109.579,491.723 107.364,473.197 121.566,471.755M86.208,547.067C88.952,546.165 95.453,546.318 97.356,548.348C99.767,550.919 96.524,557.968 93.138,559.164C85.729,561.779 79.582,549.246 86.208,547.067Z" style="fill:rgb(238,134,64);fill-rule:nonzero;"/>
                        </g>
                    </g>
                </g>
            </g>
        </g>
    </g>
</svg>
